<svg aria-hidden="true" style="position: absolute; width: 0; height: 0; overflow: hidden;" version="1.1" xmlns="http://www.w3.org/2000/svg" xmlns:xlink="http://www.w3.org/1999/xlink">
<defs>
<symbol id="icon-linkedin" viewBox="0 0 32 32">
<path  d="M9.585 7.619c-1.139 0-1.966 0.803-1.966 1.909s0.811 1.908 1.927 1.908c0.579 0 1.078-0.192 1.443-0.555 0.35-0.348 0.543-0.829 0.543-1.362-0.026-1.119-0.826-1.9-1.947-1.9zM10.481 10.347c-0.226 0.225-0.55 0.344-0.935 0.344-0.705 0-1.198-0.478-1.198-1.162 0-0.696 0.497-1.164 1.237-1.164 0.723 0 1.201 0.46 1.217 1.164 0 0.321-0.114 0.612-0.322 0.818z"></path>
<path d="M7.969 24.381h3.278v-12.316h-3.278v12.316zM8.698 12.811h1.819v10.825h-1.819v-10.825z"></path>
<path  d="M19.891 12.065c-1.52 0-2.451 0.536-2.99 1.040l-0.103-1.040h-3.709v12.316h3.632v-6.473c0-0.279 0.11-0.858 0.18-1.011 0.439-0.966 1.031-0.966 1.927-0.966 1.033 0 1.905 0.989 1.905 2.161v6.289h3.647v-6.958c0-3.681-2.328-5.357-4.49-5.357zM23.651 23.636h-2.188v-5.543c0-1.575-1.206-2.906-2.634-2.906-0.916 0-1.954 0-2.589 1.397-0.131 0.289-0.247 0.981-0.247 1.324v5.728h-2.173v-10.825h2.32l0.149 1.507h0.598l0.107-0.176c0.243-0.4 1.013-1.331 2.899-1.331 1.811 0 3.76 1.443 3.76 4.612v6.213z"></path>
</symbol>
<symbol id="icon-instagram" viewBox="0 0 32 32">
<path  d="M16 12.066c-0.778 0-1.539 0.231-2.186 0.663s-1.151 1.047-1.449 1.765c-0.298 0.719-0.376 1.51-0.224 2.273s0.526 1.464 1.077 2.014 1.251 0.925 2.014 1.077c0.763 0.152 1.554 0.074 2.273-0.224s1.333-0.802 1.765-1.449c0.432-0.647 0.663-1.408 0.663-2.186-0.001-1.043-0.416-2.043-1.154-2.78s-1.737-1.152-2.78-1.154zM16 18.908c-0.575 0-1.137-0.171-1.615-0.49s-0.851-0.774-1.071-1.305c-0.22-0.531-0.278-1.116-0.165-1.68s0.389-1.082 0.796-1.489c0.407-0.407 0.925-0.684 1.489-0.796s1.149-0.055 1.68 0.165c0.531 0.22 0.985 0.593 1.305 1.071s0.49 1.040 0.49 1.615c-0.001 0.771-0.308 1.51-0.853 2.055s-1.284 0.852-2.055 0.853zM19.763 7.619h-7.526c-1.224 0.001-2.398 0.488-3.264 1.354s-1.353 2.040-1.354 3.264v7.526c0.001 1.224 0.488 2.398 1.354 3.264s2.040 1.353 3.264 1.354h7.526c1.224-0.001 2.398-0.488 3.264-1.354s1.353-2.040 1.354-3.264v-7.526c-0.001-1.224-0.488-2.398-1.354-3.264s-2.040-1.353-3.264-1.354zM23.355 19.763c-0.001 0.952-0.38 1.865-1.053 2.539s-1.586 1.052-2.539 1.053h-7.526c-0.952-0.001-1.865-0.38-2.539-1.053s-1.052-1.586-1.053-2.539v-7.526c0.001-0.952 0.38-1.865 1.053-2.539s1.586-1.052 2.539-1.053h7.526c0.952 0.001 1.865 0.38 2.539 1.053s1.052 1.586 1.053 2.539v7.526zM21.302 11.553c0 0.169-0.050 0.334-0.144 0.475s-0.227 0.25-0.384 0.315c-0.156 0.065-0.328 0.082-0.494 0.049s-0.318-0.114-0.438-0.234c-0.12-0.12-0.201-0.272-0.234-0.438s-0.016-0.338 0.049-0.494c0.065-0.156 0.174-0.29 0.315-0.384s0.306-0.144 0.475-0.144c0.227 0 0.444 0.090 0.604 0.251s0.25 0.378 0.251 0.604z"></path>
</symbol>
<symbol id="icon-behance" viewBox="0 0 32 32">
<path  d="M7.977 11.429c-0.198 0-0.358 0.137-0.358 0.305v8.395c0 0.168 0.16 0.305 0.358 0.305h3.358c1.288-0.008 2.1-0.028 2.437-0.059 0 0 0 0 0.001 0 0.595-0.056 1.095-0.209 1.501-0.451 0.409-0.245 0.733-0.57 0.97-0.98 0.234-0.404 0.35-0.82 0.35-1.248 0-0.556-0.188-1.039-0.558-1.451-0.233-0.259-0.528-0.471-0.887-0.635 0.205-0.146 0.382-0.317 0.531-0.514 0.287-0.379 0.43-0.794 0.43-1.248 0-0.42-0.118-0.799-0.352-1.137-0.23-0.333-0.518-0.599-0.863-0.799s-0.734-0.332-1.171-0.395c-0.397-0.057-0.998-0.087-1.805-0.087h-3.941zM8.335 12.039h3.582c0.753 0 1.315 0.025 1.685 0.079 0.33 0.048 0.626 0.146 0.887 0.298s0.476 0.353 0.649 0.604c0.17 0.246 0.253 0.522 0.253 0.828 0 0.333-0.105 0.639-0.316 0.917s-0.497 0.487-0.859 0.626c-0.136 0.053-0.22 0.172-0.209 0.299s0.113 0.236 0.257 0.271c0.519 0.129 0.922 0.344 1.201 0.654 0.275 0.306 0.41 0.667 0.41 1.080 0 0.336-0.093 0.662-0.276 0.979-0.181 0.312-0.426 0.563-0.738 0.75-0.315 0.189-0.706 0.301-1.168 0.345-0.327 0.030-1.115 0.048-2.363 0.055h-2.996v-7.785zM9.968 16.165c-0.198 0-0.358 0.137-0.358 0.305v2.245c0 0.169 0.161 0.305 0.358 0.305h1.842c0.75 0 1.228-0.022 1.434-0.057 0.378-0.059 0.684-0.204 0.922-0.431 0.24-0.229 0.37-0.532 0.37-0.916 0-0.321-0.096-0.592-0.279-0.816-0.185-0.226-0.449-0.394-0.798-0.498-0.29-0.085-0.916-0.137-1.883-0.137h-1.607zM10.326 16.775h1.249c0.845 0 1.395 0.028 1.648 0.103 0.193 0.057 0.343 0.145 0.445 0.27 0.104 0.128 0.151 0.284 0.151 0.467 0 0.212-0.056 0.383-0.188 0.51-0.134 0.127-0.308 0.205-0.52 0.238-0.003 0-0.006 0.001-0.009 0.002-0.182 0.033-0.613 0.045-1.292 0.045h-1.484v-1.635zM9.968 12.826c-0.198 0-0.358 0.137-0.358 0.305v1.941c0 0.168 0.161 0.305 0.358 0.305h1.304c0.798 0 1.294-0.011 1.488-0.031 0.432-0.043 0.768-0.177 1.015-0.388 0.26-0.221 0.398-0.51 0.398-0.871 0-0.343-0.119-0.62-0.342-0.835-0.22-0.212-0.541-0.351-0.975-0.396-0.001 0-0.002-0-0.003-0-0.202-0.020-0.783-0.031-1.742-0.031h-1.143zM10.326 13.436h0.785c0.913 0 1.466 0.008 1.659 0.027 0.229 0.024 0.407 0.082 0.523 0.194 0.114 0.11 0.162 0.255 0.162 0.431 0 0.181-0.057 0.329-0.188 0.44-0.143 0.122-0.343 0.188-0.592 0.213-0.183 0.018-0.651 0.027-1.404 0.027h-0.946v-1.331z"></path>
<path  d="M24.258 18.564c0.038-0.093 0.021-0.197-0.046-0.277s-0.176-0.129-0.292-0.129h-1.998c-0.14 0-0.267 0.070-0.326 0.178-0.065 0.121-0.143 0.217-0.24 0.284-0.141 0.096-0.316 0.139-0.523 0.139-0.33 0-0.606-0.1-0.828-0.301-0.17-0.155-0.276-0.356-0.326-0.601h4.341c0.195 0 0.354-0.133 0.358-0.299 0.029-1.328-0.308-2.309-0.97-2.952-0.681-0.662-1.607-1-2.784-1-1.052 0-1.922 0.319-2.61 0.954-0.674 0.622-1.023 1.478-1.023 2.575 0 0.917 0.263 1.674 0.774 2.275 0 0.001 0.001 0.001 0.001 0.002 0.66 0.765 1.671 1.161 3.046 1.161 0.867 0 1.587-0.175 2.164-0.515 0.582-0.342 1.012-0.838 1.281-1.493zM23.375 18.768c-0.203 0.327-0.471 0.59-0.805 0.787-0.467 0.275-1.054 0.407-1.756 0.407-1.108 0-1.935-0.295-2.468-0.911-0.43-0.506-0.637-1.145-0.637-1.916 0-0.918 0.269-1.641 0.833-2.161 0.549-0.507 1.244-0.758 2.084-0.758 0.947 0 1.698 0.259 2.245 0.792 0.516 0.502 0.77 1.251 0.792 2.24h-4.376c-0.097 0-0.189 0.033-0.256 0.092s-0.104 0.138-0.102 0.22c0.016 0.565 0.209 1.001 0.554 1.315 0.361 0.329 0.811 0.495 1.351 0.495 0.385 0 0.707-0.094 0.97-0.273 0.125-0.085 0.237-0.194 0.333-0.328h1.238zM22.145 16.872c0.096 0 0.189-0.033 0.256-0.092s0.104-0.138 0.102-0.221c-0.016-0.556-0.2-0.975-0.521-1.264-0.34-0.306-0.754-0.459-1.242-0.459-0.52 0-0.95 0.162-1.289 0.485-0.323 0.307-0.494 0.721-0.488 1.248 0.002 0.167 0.162 0.302 0.358 0.302h2.824zM21.753 16.262h-2.049c0.040-0.213 0.131-0.392 0.281-0.534 0.199-0.189 0.451-0.282 0.755-0.282 0.283 0 0.523 0.090 0.722 0.268 0.152 0.137 0.246 0.321 0.292 0.548z"></path>
<path  d="M23.234 12.167c0-0.168-0.16-0.305-0.358-0.305h-4.012c-0.198 0-0.358 0.137-0.358 0.305v0.787c0 0.168 0.16 0.305 0.358 0.305h4.012c0.198 0 0.358-0.137 0.358-0.305v-0.787zM22.517 12.472v0.177h-3.295v-0.177h3.295z"></path>
</symbol>

</defs>
</svg>